<svg width="375" height="923" viewBox="0 0 375 923" fill="none" xmlns="http://www.w3.org/2000/svg">
<g clip-path="url(#clip0)">
<path fill-rule="evenodd" clip-rule="evenodd" d="M-161 167.504C-138.467 56.5039 -10.2865 -10.5098 142.651 3.21326C224.36 10.545 265.707 33.3501 306.719 55.9699C355.529 82.8906 403.863 109.549 519.194 109.549C621.671 109.549 706.272 42.0728 796.981 -30.2754C905.736 -117.016 1023.27 -210.761 1190.92 -203.616L1262.54 395.923L1184.31 403.569V444.383C1160.01 490.726 1111.42 552.934 1008.16 561.68C941.214 567.35 890.996 560.5 843.292 553.994C759.459 542.559 683.391 532.183 537.918 592.682C487.429 613.679 453.04 649.747 415.165 689.47C331.341 777.385 230.442 883.207 -99.8383 883.207V529.071L-136.708 532.675L-161 167.504Z" fill="url(#paint0_linear)"/>
<path opacity="0.22" d="M241.102 116.574L242.214 117.021L241.102 116.574L241.102 116.575C241.102 116.574 241.102 116.574 241.102 116.574ZM234.543 105.899L240.886 117.109L236.077 129.059L223.736 132.749L213.157 125.401L212.305 112.549L221.823 103.869L234.543 105.899Z" stroke="#702D7B" stroke-width="5"/>
<path opacity="0.22" d="M67.6309 799.875L80.0961 786.441L98.3714 787.81L108.695 802.952L103.293 820.465L86.2336 827.16L70.3623 817.997L67.6309 799.875ZM70.4151 818.347L70.4148 818.345L70.4151 818.347Z" stroke="#F0DBF3" stroke-width="5"/>
</g>
<path opacity="0.22" d="M346.508 837.044L378.138 839.415L396.006 865.622L386.657 895.932L357.131 907.52L329.661 891.661L324.934 860.296L346.508 837.044ZM356.695 907.691C356.695 907.691 356.696 907.691 356.696 907.691L356.695 907.691ZM329.731 892.124L329.73 892.121L329.731 892.124Z" stroke="#F0DBF3" stroke-width="8"/>
<defs>
<linearGradient id="paint0_linear" x1="488.053" y1="-95.5851" x2="258.874" y2="824.866" gradientUnits="userSpaceOnUse">
<stop stop-color="#2382F2"/>
<stop offset="1" stop-color="#4659FF"/>
</linearGradient>
<clipPath id="clip0">
<rect width="768" height="883" fill="white" transform="translate(-22)"/>
</clipPath>
</defs>
</svg>
