<svg width="768" height="1021" viewBox="0 0 768 1021" fill="none" xmlns="http://www.w3.org/2000/svg">
<g clip-path="url(#clip0)">
<path fill-rule="evenodd" clip-rule="evenodd" d="M-170.25 198.926C-144.368 71.4283 2.8632 -5.54536 178.531 10.2173C272.384 18.6388 319.877 44.8332 366.984 70.8149C423.048 101.737 478.566 132.357 611.038 132.357C728.745 132.357 825.92 54.8524 930.111 -28.2485C1055.03 -127.882 1190.03 -235.559 1382.6 -227.351L1464.86 461.293L1375 470.076V516.956C1347.1 570.187 1291.28 641.641 1172.68 651.686C1095.78 658.199 1038.1 650.331 983.305 642.857C887.012 629.723 799.638 617.805 632.545 687.296C574.552 711.413 535.052 752.842 491.547 798.469C395.265 899.45 279.37 1021 -99.998 1021V614.231L-142.348 618.37L-170.25 198.926Z" fill="url(#paint0_linear)"/>
<path opacity="0.22" d="M429.615 201.958L441.332 191.273L456.991 193.772L464.802 207.573L458.881 222.284L443.688 226.827L430.663 217.782L429.615 201.958ZM430.693 218.236L430.693 218.235L430.693 218.236Z" stroke="#702D7B" stroke-width="5"/>
<path opacity="0.22" d="M557.857 17.1847L581.391 18.9484L594.686 38.4483L587.73 61.0006L565.76 69.6229L545.321 57.8225L541.804 34.4853L557.857 17.1847ZM595.137 39.1101C595.137 39.11 595.137 39.1099 595.137 39.1097L595.137 39.1101ZM582.189 19.0081L582.19 19.0082L582.189 19.0081Z" stroke="#F0DBF3" stroke-width="8"/>
</g>
<path opacity="0.22" d="M616.667 911.373L637.264 941.583L626.487 976.522L592.451 989.88L560.786 971.598L555.337 935.444L580.206 908.641L616.667 911.373ZM560.893 972.302L560.892 972.299C560.892 972.3 560.892 972.301 560.893 972.302ZM591.788 990.14C591.789 990.14 591.79 990.139 591.791 990.139L591.788 990.14L592.328 991.516L591.788 990.14Z" stroke="#F0DBF3" stroke-width="10"/>
<defs>
<linearGradient id="paint0_linear" x1="575.268" y1="-103.265" x2="312.028" y2="953.988" gradientUnits="userSpaceOnUse">
<stop stop-color="#2382F2"/>
<stop offset="1" stop-color="#4659FF"/>
</linearGradient>
<clipPath id="clip0">
<rect width="768" height="1021" fill="white"/>
</clipPath>
</defs>
</svg>
