<svg width="34" height="18" viewBox="0 0 34 18" fill="none" xmlns="http://www.w3.org/2000/svg">
<path fill-rule="evenodd" clip-rule="evenodd" d="M8.22877 1.31819L1.31514 8.23182C0.890888 8.65607 0.890888 9.34393 1.31514 9.76818L8.22877 16.6818C8.65303 17.1061 9.34088 17.1061 9.76513 16.6818C10.1894 16.2576 10.1894 15.5697 9.76513 15.1454L4.70606 10.0864L27.0699 10.0864C27.6699 10.0864 28.1562 9.59999 28.1562 9C28.1562 8.40001 27.6699 7.91363 27.0699 7.91363L4.70606 7.91363L9.76513 2.85455C10.1894 2.4303 10.1894 1.74245 9.76513 1.31819C9.34088 0.893936 8.65303 0.893936 8.22877 1.31819Z" fill="#2F8FFF" stroke="#2F8FFF" stroke-width="0.6" stroke-linejoin="round"/>
<circle r="1.08637" transform="matrix(-1 0 0 1 32.5035 9.00043)" fill="#2F8FFF" stroke="#2F8FFF" stroke-width="0.6"/>
</svg>
