<svg width="1920" height="1740" viewBox="0 0 1920 1740" fill="none" xmlns="http://www.w3.org/2000/svg">
<path fill-rule="evenodd" clip-rule="evenodd" d="M-122.312 581.542C-87.0645 407.905 112.709 314.22 352.687 324.542C510.702 331.339 619.012 412.969 727.306 494.586C840.372 579.8 953.42 665 1123 665C1284.36 665 1379.4 521.562 1481.17 367.975C1601.71 186.05 1731.69 -10.1157 1992.5 1.00029L2104.53 938.857L1982.5 950.783V1015C1944.5 1087.5 1868.5 1184.82 1707 1198.5C1602.28 1207.37 1523.74 1196.65 1449.13 1186.47C1318.01 1168.59 1199.03 1152.35 971.499 1247C892.531 1279.85 838.743 1336.27 779.503 1398.42C648.396 1535.95 490.583 1701.5 -26.001 1701.5V1147.08L-84.3125 1152.78L-122.312 581.542Z" fill="url(#paint0_linear)"/>
<path fill-rule="evenodd" clip-rule="evenodd" d="M52.9559 1383.44L1.7451 1375.27L-36.573 1410.21L-33.1441 1461.96L9.44983 1491.54L59.1346 1476.68L78.4966 1428.57L52.9559 1383.44ZM66.3908 1368.64C65.4961 1367.05 63.9299 1365.97 62.1358 1365.68L-1.4523 1355.53C-3.24643 1355.25 -5.07328 1355.79 -6.41572 1357.02L-53.995 1400.41C-55.3375 1401.63 -56.0494 1403.4 -55.9293 1405.21L-51.6716 1469.47C-51.5515 1471.28 -50.6124 1472.94 -49.1201 1473.97L3.76841 1510.71C5.26066 1511.74 7.14362 1512.04 8.88429 1511.52L70.5775 1493.07C72.3182 1492.55 73.7271 1491.27 74.4054 1489.58L98.4472 1429.85C99.1255 1428.16 98.9994 1426.26 98.1046 1424.68L66.3908 1368.64Z" fill="white" fill-opacity="0.13"/>
<path opacity="0.22" d="M206.727 989.178L209.447 990.273L206.727 989.178L206.725 989.182C206.726 989.181 206.726 989.179 206.727 989.178ZM191.294 964.148L206.2 990.488L194.9 1018.56L165.904 1027.23L141.047 1009.97L139.046 979.772L161.408 959.38L191.294 964.148Z" stroke="#702D7B" stroke-width="12"/>
<path opacity="0.22" d="M1826.25 455L1826.67 456.423L1826.25 455C1826.25 455 1826.25 455 1826.25 454.999L1826.25 455ZM1851.55 447.434L1826.93 454.795L1805.83 440.139L1804.13 414.501L1823.11 397.189L1848.49 401.237L1861.14 423.598L1851.55 447.434Z" stroke="#702D7B" stroke-width="8"/>
<path opacity="0.22" d="M1815.43 651.995L1816.6 652.357L1815.43 651.995L1815.43 651.998C1815.43 651.997 1815.43 651.996 1815.43 651.995ZM1780.84 602.079L1815.26 652.56L1797.25 710.942L1740.37 733.263L1687.46 702.715L1678.36 642.301L1719.91 597.514L1780.84 602.079ZM1797.07 711.506C1797.07 711.506 1797.07 711.505 1797.07 711.504L1797.07 711.506ZM1739.83 733.479C1739.83 733.479 1739.83 733.478 1739.83 733.478L1739.83 733.479Z" stroke="#F0DBF3" stroke-width="14"/>
<path opacity="0.22" d="M1481.61 1629.97L1482.78 1630.33L1481.61 1629.97L1481.61 1629.97C1481.61 1629.97 1481.61 1629.97 1481.61 1629.97ZM1447.02 1580.05L1481.43 1630.53L1463.42 1688.91L1406.55 1711.23L1353.64 1680.69L1344.53 1620.27L1386.09 1575.48L1447.02 1580.05ZM1463.25 1689.48C1463.25 1689.48 1463.25 1689.48 1463.25 1689.47L1463.25 1689.48ZM1406 1711.45C1406 1711.45 1406 1711.45 1406 1711.45L1406 1711.45Z" stroke="#F0DBF3" stroke-width="14"/>
<defs>
<linearGradient id="paint0_linear" x1="892.999" y1="170.165" x2="534.403" y2="1610.2" gradientUnits="userSpaceOnUse">
<stop stop-color="#2382F2"/>
<stop offset="1" stop-color="#4659FF"/>
</linearGradient>
</defs>
</svg>
