<svg width="34" height="18" viewBox="0 0 34 18" fill="none" xmlns="http://www.w3.org/2000/svg">
<path fill-rule="evenodd" clip-rule="evenodd" d="M25.7712 1.31819L32.6849 8.23182C33.1091 8.65607 33.1091 9.34393 32.6849 9.76818L25.7712 16.6818C25.347 17.1061 24.6591 17.1061 24.2349 16.6818C23.8106 16.2576 23.8106 15.5697 24.2349 15.1454L29.2939 10.0864L6.93012 10.0864C6.33014 10.0864 5.84375 9.59999 5.84375 9C5.84375 8.40001 6.33014 7.91363 6.93012 7.91363L29.2939 7.91363L24.2349 2.85455C23.8106 2.4303 23.8106 1.74245 24.2349 1.31819C24.6591 0.893936 25.347 0.893936 25.7712 1.31819Z" fill="#2F8FFF" stroke="#2F8FFF" stroke-width="0.6" stroke-linejoin="round"/>
<circle cx="1.49653" cy="9.00043" r="1.08637" fill="#2F8FFF" stroke="#2F8FFF" stroke-width="0.6"/>
</svg>
