<svg width="1440" height="1632" viewBox="0 0 1440 1632" fill="none" xmlns="http://www.w3.org/2000/svg">
<path fill-rule="evenodd" clip-rule="evenodd" d="M-387.031 580.561C-353.96 417.647 -166.525 329.748 58.6329 339.433C206.888 345.81 308.51 422.398 410.115 498.974C516.198 578.926 622.264 658.864 781.37 658.864C932.768 658.864 1021.94 524.285 1117.42 380.184C1230.52 209.494 1352.46 25.4433 1597.17 35.8728L1702.28 915.808L1587.79 926.998V987.247C1552.13 1055.27 1480.83 1146.58 1329.3 1159.41C1231.05 1167.74 1157.36 1157.68 1087.36 1148.13C964.333 1131.35 852.704 1116.12 639.226 1204.92C565.135 1235.74 514.669 1288.68 459.088 1346.98C336.078 1476.02 188.011 1631.35 -296.669 1631.35V1111.17L-351.378 1116.52L-387.031 580.561Z" fill="url(#paint0_linear)"/>
<path opacity="0.22" d="M1410.48 503.035L1451.56 505.641L1474.76 534.453L1462.79 567.293L1424.75 579.933L1388.95 562.44L1382.86 528.228L1410.48 503.035ZM1474.88 534.601C1474.88 534.601 1474.88 534.601 1474.88 534.601L1474.88 534.601ZM1388.97 562.558L1388.97 562.556L1388.97 562.558Z" stroke="#F0DBF3" stroke-width="8"/>
<path opacity="0.22" d="M1189.39 1363.19L1244.15 1366.67L1275.09 1405.07L1259.16 1448.77L1208.5 1465.6L1160.76 1442.27L1152.65 1396.71L1189.39 1363.19ZM1258.87 1449.57C1258.87 1449.57 1258.87 1449.57 1258.87 1449.57L1258.87 1449.57ZM1188.8 1363.15L1188.8 1363.15L1188.8 1363.15Z" stroke="#F0DBF3" stroke-width="12"/>
<defs>
<linearGradient id="paint0_linear" x1="565.575" y1="194.59" x2="229.125" y2="1545.69" gradientUnits="userSpaceOnUse">
<stop stop-color="#2382F2"/>
<stop offset="1" stop-color="#4659FF"/>
</linearGradient>
</defs>
</svg>
