<svg width="768" height="1021" viewBox="0 0 768 1021" fill="none" xmlns="http://www.w3.org/2000/svg">
<g clip-path="url(#clip0)">
<path fill-rule="evenodd" clip-rule="evenodd" d="M-170.25 198.926C-144.368 71.4283 2.8632 -5.54536 178.531 10.2173C272.384 18.6388 319.877 44.8332 366.984 70.8149C423.048 101.737 478.566 132.357 611.038 132.357C728.745 132.357 825.92 54.8524 930.111 -28.2485C1055.03 -127.882 1190.03 -235.559 1382.6 -227.351L1464.86 461.293L1375 470.076V516.956C1347.1 570.187 1291.28 641.641 1172.68 651.686C1095.78 658.199 1038.1 650.331 983.305 642.857C887.012 629.723 799.638 617.805 632.545 687.296C574.552 711.413 535.052 752.842 491.547 798.469C395.265 899.45 279.37 1021 -99.998 1021V614.231L-142.348 618.37L-170.25 198.926Z" fill="url(#paint0_linear)"/>
<path opacity="0.22" d="M429.615 201.958L441.332 191.273L456.991 193.772L464.802 207.573L458.881 222.284L443.688 226.827L430.663 217.782L429.615 201.958ZM430.693 218.236L430.693 218.235L430.693 218.236Z" stroke="#702D7B" stroke-width="5"/>
<path opacity="0.22" d="M557.857 17.1847L581.391 18.9484L594.686 38.4483L587.73 61.0006L565.76 69.6229L545.321 57.8225L541.804 34.4853L557.857 17.1847ZM595.137 39.1101C595.137 39.11 595.137 39.1099 595.137 39.1097L595.137 39.1101ZM582.189 19.0081L582.19 19.0082L582.189 19.0081Z" stroke="#F0DBF3" stroke-width="8"/>
<rect x="502" y="289" width="226" height="56" rx="28" fill="white"/>
<path d="M578.224 312.008C578.224 311.816 578.336 311.651 578.56 311.512C578.784 311.373 579.024 311.304 579.28 311.304C579.6 311.304 579.797 311.421 579.872 311.656L582.512 320.776L585.136 311.656C585.21 311.421 585.402 311.304 585.712 311.304C585.968 311.304 586.208 311.373 586.432 311.512C586.666 311.651 586.784 311.816 586.784 312.008C586.784 312.04 586.773 312.088 586.752 312.152L583.584 322.52C583.53 322.701 583.402 322.845 583.2 322.952C582.997 323.048 582.768 323.096 582.512 323.096C581.925 323.096 581.568 322.904 581.44 322.52L578.24 312.152C578.229 312.12 578.224 312.072 578.224 312.008ZM588.04 322.44V311.848C588.04 311.667 588.12 311.533 588.28 311.448C588.451 311.352 588.654 311.304 588.888 311.304C589.123 311.304 589.32 311.352 589.48 311.448C589.651 311.533 589.736 311.667 589.736 311.848V322.44C589.736 322.611 589.651 322.749 589.48 322.856C589.32 322.952 589.123 323 588.888 323C588.664 323 588.467 322.952 588.296 322.856C588.126 322.749 588.04 322.611 588.04 322.44ZM591.853 322.44V311.864C591.853 311.693 591.928 311.56 592.077 311.464C592.226 311.357 592.402 311.304 592.605 311.304H598.301C598.482 311.304 598.621 311.379 598.717 311.528C598.813 311.677 598.861 311.848 598.861 312.04C598.861 312.253 598.808 312.435 598.701 312.584C598.605 312.733 598.472 312.808 598.301 312.808H593.549V316.472H596.013C596.184 316.472 596.317 316.541 596.413 316.68C596.52 316.808 596.573 316.968 596.573 317.16C596.573 317.331 596.525 317.485 596.429 317.624C596.333 317.752 596.194 317.816 596.013 317.816H593.549V321.496H598.301C598.472 321.496 598.605 321.571 598.701 321.72C598.808 321.869 598.861 322.051 598.861 322.264C598.861 322.456 598.813 322.627 598.717 322.776C598.621 322.925 598.482 323 598.301 323H592.605C592.402 323 592.226 322.952 592.077 322.856C591.928 322.749 591.853 322.611 591.853 322.44ZM599.396 311.992C599.396 311.8 599.508 311.64 599.732 311.512C599.956 311.373 600.196 311.304 600.452 311.304C600.783 311.304 600.98 311.421 601.044 311.656L603.668 320.776L605.108 315.048C605.183 314.717 605.465 314.552 605.956 314.552C606.425 314.552 606.703 314.717 606.788 315.048L608.244 320.776L610.852 311.656C610.916 311.421 611.113 311.304 611.444 311.304C611.7 311.304 611.94 311.373 612.164 311.512C612.388 311.64 612.5 311.8 612.5 311.992C612.5 312.067 612.495 312.12 612.484 312.152L609.316 322.52C609.252 322.701 609.113 322.845 608.9 322.952C608.697 323.048 608.473 323.096 608.228 323.096C607.983 323.096 607.753 323.048 607.54 322.952C607.337 322.845 607.215 322.701 607.172 322.52L605.956 317.688L604.74 322.52C604.697 322.701 604.569 322.845 604.356 322.952C604.153 323.048 603.924 323.096 603.668 323.096C603.412 323.096 603.183 323.048 602.98 322.952C602.777 322.845 602.649 322.701 602.596 322.52L599.412 312.152C599.401 312.12 599.396 312.067 599.396 311.992ZM619.349 322.296C619.349 322.232 619.354 322.184 619.365 322.152L622.549 311.784C622.677 311.4 623.034 311.208 623.621 311.208C624.218 311.208 624.581 311.4 624.709 311.784L627.877 322.152C627.898 322.216 627.909 322.264 627.909 322.296C627.909 322.488 627.792 322.653 627.557 322.792C627.333 322.931 627.093 323 626.837 323C626.528 323 626.336 322.883 626.261 322.648L625.605 320.376H621.653L620.997 322.648C620.922 322.883 620.725 323 620.405 323C620.149 323 619.909 322.931 619.685 322.792C619.461 322.653 619.349 322.488 619.349 322.296ZM622.021 319.016H625.221L623.621 313.528L622.021 319.016ZM629.165 322.44V311.848C629.165 311.667 629.245 311.533 629.405 311.448C629.576 311.352 629.779 311.304 630.013 311.304C630.248 311.304 630.445 311.352 630.605 311.448C630.776 311.533 630.861 311.667 630.861 311.848V321.496H635.021C635.181 321.496 635.304 321.571 635.389 321.72C635.485 321.869 635.533 322.045 635.533 322.248C635.533 322.451 635.485 322.627 635.389 322.776C635.304 322.925 635.181 323 635.021 323H629.917C629.715 323 629.539 322.952 629.389 322.856C629.24 322.749 629.165 322.611 629.165 322.44ZM636.79 322.44V311.848C636.79 311.667 636.87 311.533 637.03 311.448C637.201 311.352 637.404 311.304 637.638 311.304C637.873 311.304 638.07 311.352 638.23 311.448C638.401 311.533 638.486 311.667 638.486 311.848V321.496H642.646C642.806 321.496 642.929 321.571 643.014 321.72C643.11 321.869 643.158 322.045 643.158 322.248C643.158 322.451 643.11 322.627 643.014 322.776C642.929 322.925 642.806 323 642.646 323H637.542C637.34 323 637.164 322.952 637.014 322.856C636.865 322.749 636.79 322.611 636.79 322.44ZM647.507 319.528V314.872C647.507 313.645 647.832 312.744 648.483 312.168C649.133 311.592 649.987 311.304 651.043 311.304C652.12 311.304 652.995 311.576 653.667 312.12C654.349 312.653 654.691 313.368 654.691 314.264C654.691 314.573 654.621 314.787 654.483 314.904C654.355 315.021 654.141 315.08 653.843 315.08C653.288 315.08 653.005 314.893 652.995 314.52C652.877 313.379 652.243 312.808 651.091 312.808C649.832 312.808 649.203 313.496 649.203 314.872V319.528C649.203 320.904 649.832 321.592 651.091 321.592C651.699 321.592 652.168 321.421 652.499 321.08C652.829 320.739 652.995 320.221 652.995 319.528V318.216H651.379C651.208 318.216 651.075 318.152 650.979 318.024C650.883 317.885 650.835 317.72 650.835 317.528C650.835 317.357 650.883 317.203 650.979 317.064C651.075 316.925 651.208 316.856 651.379 316.856H654.131C654.301 316.856 654.435 316.915 654.531 317.032C654.637 317.139 654.691 317.272 654.691 317.432V319.528C654.691 320.755 654.36 321.656 653.699 322.232C653.048 322.808 652.179 323.096 651.091 323.096C650.003 323.096 649.133 322.808 648.483 322.232C647.832 321.656 647.507 320.755 647.507 319.528ZM655.677 322.296C655.677 322.232 655.682 322.184 655.693 322.152L658.877 311.784C659.005 311.4 659.362 311.208 659.949 311.208C660.546 311.208 660.909 311.4 661.037 311.784L664.205 322.152C664.226 322.216 664.237 322.264 664.237 322.296C664.237 322.488 664.12 322.653 663.885 322.792C663.661 322.931 663.421 323 663.165 323C662.856 323 662.664 322.883 662.589 322.648L661.933 320.376H657.981L657.325 322.648C657.25 322.883 657.053 323 656.733 323C656.477 323 656.237 322.931 656.013 322.792C655.789 322.653 655.677 322.488 655.677 322.296ZM658.349 319.016H661.549L659.949 313.528L658.349 319.016ZM665.493 322.44V312.152C665.493 311.864 665.573 311.651 665.734 311.512C665.894 311.373 666.096 311.304 666.342 311.304C666.651 311.304 666.902 311.373 667.094 311.512C667.296 311.64 667.494 311.891 667.686 312.264L669.926 316.504L672.198 312.264C672.39 311.891 672.582 311.64 672.774 311.512C672.966 311.373 673.216 311.304 673.526 311.304C673.771 311.304 673.974 311.373 674.134 311.512C674.294 311.651 674.374 311.864 674.374 312.152V322.44C674.374 322.611 674.288 322.749 674.118 322.856C673.958 322.952 673.76 323 673.526 323C673.302 323 673.104 322.952 672.934 322.856C672.763 322.749 672.678 322.611 672.678 322.44V314.76L670.534 318.728C670.374 318.984 670.166 319.112 669.91 319.112C669.654 319.112 669.462 318.984 669.334 318.728L667.19 314.664V322.44C667.19 322.611 667.104 322.749 666.934 322.856C666.774 322.952 666.576 323 666.342 323C666.118 323 665.92 322.952 665.75 322.856C665.579 322.749 665.493 322.611 665.493 322.44ZM676.478 322.44V311.864C676.478 311.693 676.553 311.56 676.702 311.464C676.851 311.357 677.027 311.304 677.23 311.304H682.926C683.107 311.304 683.246 311.379 683.342 311.528C683.438 311.677 683.486 311.848 683.486 312.04C683.486 312.253 683.433 312.435 683.326 312.584C683.23 312.733 683.097 312.808 682.926 312.808H678.174V316.472H680.638C680.809 316.472 680.942 316.541 681.038 316.68C681.145 316.808 681.198 316.968 681.198 317.16C681.198 317.331 681.15 317.485 681.054 317.624C680.958 317.752 680.819 317.816 680.638 317.816H678.174V321.496H682.926C683.097 321.496 683.23 321.571 683.326 321.72C683.433 321.869 683.486 322.051 683.486 322.264C683.486 322.456 683.438 322.627 683.342 322.776C683.246 322.925 683.107 323 682.926 323H677.23C677.027 323 676.851 322.952 676.702 322.856C676.553 322.749 676.478 322.611 676.478 322.44ZM684.261 321.24C684.261 321.037 684.336 320.835 684.485 320.632C684.634 320.429 684.805 320.328 684.997 320.328C685.114 320.328 685.253 320.397 685.413 320.536C685.584 320.664 685.749 320.808 685.909 320.968C686.069 321.117 686.309 321.261 686.629 321.4C686.96 321.528 687.328 321.592 687.733 321.592C688.341 321.592 688.826 321.448 689.189 321.16C689.562 320.872 689.749 320.451 689.749 319.896C689.749 319.384 689.568 318.957 689.205 318.616C688.853 318.275 688.421 318.003 687.909 317.8C687.408 317.597 686.901 317.379 686.389 317.144C685.877 316.909 685.44 316.557 685.077 316.088C684.725 315.619 684.549 315.032 684.549 314.328C684.549 313.763 684.656 313.272 684.869 312.856C685.093 312.44 685.392 312.12 685.765 311.896C686.138 311.672 686.528 311.512 686.933 311.416C687.349 311.309 687.786 311.256 688.245 311.256C688.533 311.256 688.832 311.277 689.141 311.32C689.461 311.352 689.776 311.411 690.085 311.496C690.394 311.581 690.65 311.704 690.853 311.864C691.056 312.024 691.157 312.205 691.157 312.408C691.157 312.611 691.093 312.813 690.965 313.016C690.837 313.219 690.666 313.32 690.453 313.32C690.346 313.32 690.202 313.272 690.021 313.176C689.84 313.069 689.594 312.968 689.285 312.872C688.986 312.765 688.64 312.712 688.245 312.712C687.637 312.712 687.152 312.835 686.789 313.08C686.426 313.315 686.245 313.677 686.245 314.168C686.245 314.488 686.341 314.765 686.533 315C686.725 315.224 686.97 315.411 687.269 315.56C687.578 315.709 687.92 315.859 688.293 316.008C688.666 316.147 689.034 316.312 689.397 316.504C689.77 316.696 690.106 316.92 690.405 317.176C690.714 317.421 690.965 317.763 691.157 318.2C691.349 318.637 691.445 319.144 691.445 319.72C691.445 320.829 691.109 321.677 690.437 322.264C689.776 322.84 688.896 323.128 687.797 323.128C686.816 323.128 685.978 322.925 685.285 322.52C684.602 322.104 684.261 321.677 684.261 321.24Z" fill="#363078"/>
<path d="M548.7 307.263C555.458 309.697 560.4 316.669 560.4 316.669C560.4 316.669 553.147 326.9 544.2 326.9C535.253 326.9 528 316.669 528 316.669C528 316.669 532.942 309.697 539.7 307.263" stroke="#2F73F6" stroke-width="2" stroke-linecap="round"/>
<path d="M538.5 316.5V316.5C538.5 319.532 540.968 322 544 322C547.032 322 549.5 319.532 549.5 316.5C549.5 313.468 547.032 311 544 311C540.968 311 538.5 313.468 538.5 316.5Z" stroke="#2F73F6" stroke-width="2"/>
<circle cx="544.125" cy="306.875" r="1.125" fill="#2F73F6"/>
</g>
<path opacity="0.22" d="M616.667 911.373L637.264 941.583L626.487 976.522L592.451 989.88L560.786 971.598L555.337 935.444L580.206 908.641L616.667 911.373ZM560.893 972.302L560.892 972.299C560.892 972.3 560.892 972.301 560.893 972.302ZM591.788 990.14C591.789 990.14 591.79 990.139 591.791 990.139L591.788 990.14L592.328 991.516L591.788 990.14Z" stroke="#F0DBF3" stroke-width="10"/>
<defs>
<linearGradient id="paint0_linear" x1="575.268" y1="-103.265" x2="312.028" y2="953.988" gradientUnits="userSpaceOnUse">
<stop stop-color="#2382F2"/>
<stop offset="1" stop-color="#4659FF"/>
</linearGradient>
<clipPath id="clip0">
<rect width="768" height="1021" fill="white"/>
</clipPath>
</defs>
</svg>
